inDegrees=no
num_controls=7
num_derivatives=13
num_iterations=120
num_multipliers=7
num_parameters=0
num_slacks=7
num_states=26
objective=0.444811
objective_accelerations=0.057998
objective_balance=0.003589
objective_effort=0.023275
objective_height=0.354459
objective_ligament=0.005489
solver_duration=1794.975398
status=Solve_Succeeded
success=true
DataType=double
version=3
OpenSimVersion=4.5
endheader
time	/jointset/ground_pelvis/pelvis_tilt/value	/jointset/ground_pelvis/pelvis_tx/value	/jointset/ground_pelvis/pelvis_ty/value	/jointset/hip_l/hip_flexion_l/value	/jointset/hip_l/hip_adduction_l/value	/jointset/hip_l/hip_rotation_l/value	/jointset/back/lumbar_extension/value	/jointset/patellofemoral_l/patellar_flexion_l/value	/jointset/knee_l/knee_flexion_l/value	/jointset/knee_l/knee_adduction_l/value	/jointset/knee_l/knee_rotation_l/value	/jointset/ankle_l/ankle_angle_l/value	/jointset/subtalar_l/subtalar_angle_l/value	/jointset/ground_pelvis/pelvis_tilt/speed	/jointset/ground_pelvis/pelvis_tx/speed	/jointset/ground_pelvis/pelvis_ty/speed	/jointset/hip_l/hip_flexion_l/speed	/jointset/hip_l/hip_adduction_l/speed	/jointset/hip_l/hip_rotation_l/speed	/jointset/back/lumbar_extension/speed	/jointset/patellofemoral_l/patellar_flexion_l/speed	/jointset/knee_l/knee_flexion_l/speed	/jointset/knee_l/knee_adduction_l/speed	/jointset/knee_l/knee_rotation_l/speed	/jointset/ankle_l/ankle_angle_l/speed	/jointset/subtalar_l/subtalar_angle_l/speed	/forceset/tau_hip_flexion_l	/forceset/tau_hip_adduction_l	/forceset/tau_hip_rotation_l	/forceset/tau_knee_flexion_l	/forceset/tau_ankle_angle_l	/forceset/tau_subtalar_angle_l	/forceset/tau_lumbar_extension	lambda_cid13_p0	lambda_cid13_p1	lambda_cid13_p2	lambda_cid13_p3	lambda_cid13_p4	lambda_cid13_p5	lambda_cid14_p0	/jointset/ground_pelvis/pelvis_tilt/accel	/jointset/ground_pelvis/pelvis_tx/accel	/jointset/ground_pelvis/pelvis_ty/accel	/jointset/hip_l/hip_flexion_l/accel	/jointset/hip_l/hip_adduction_l/accel	/jointset/hip_l/hip_rotation_l/accel	/jointset/back/lumbar_extension/accel	/jointset/patellofemoral_l/patellar_flexion_l/accel	/jointset/knee_l/knee_flexion_l/accel	/jointset/knee_l/knee_adduction_l/accel	/jointset/knee_l/knee_rotation_l/accel	/jointset/ankle_l/ankle_angle_l/accel	/jointset/subtalar_l/subtalar_angle_l/accel	gamma_cid13_p0	gamma_cid13_p1	gamma_cid13_p2	gamma_cid13_p3	gamma_cid13_p4	gamma_cid13_p5	gamma_cid14_p0
0.5	-0.3442354662817564	-0.04199891346897552	0.7572548938989458	1.114107685515351	-0.4364405688106224	-0.218405775171225	-0.2545718169681123	0.8142107409896273	0.8142107409896243	-0.1263566071056476	-0.1572103203099439	0.105334489656121	-0.03354253448979484	-0.7813914313587476	-0.2168893459443705	-0.5415996351657429	2.508620875148003	-0.2046828416968801	0.745712936001103	-0.1139610086997992	2.006833759533948	2.006833759533963	0.1338673325990754	-0.09300569953613225	0.4529738443043029	-0.002910644856633316	-0.1706808642788622	0.02181756538343282	-0.01129933020455032	-0.2224760665729638	0.07596638634811741	0.0410107208032752	0.1685588998490724	-8.469453037766586	-19.28466638905056	6.115791697417345	-7.94900632672821	-522.7250528144119	-59.55668678456112	-24.7728912521789	0.8150566643425328	0.6485847601593737	-0.4530397441506875	-1.437603082466991	0.7433015297732709	-0.2146097250567932	1.116053742865786	-1.306386675063884	-1.30638667506394	0.08860871073046037	0.1902397320986613	-0.4845752653846813	0.5589926085630138	-5.56754385762663e-07	-3.886910569211162e-07	2.877825701794606e-06	1.632247995053682e-07	-6.367804226348656e-07	7.962774546207163e-08	-4.584854317193416e-07
0.51	-0.3520067261477238	-0.04413515909868641	0.7518174256832002	1.139117232336595	-0.4384513912182381	-0.2109580825689377	-0.2556569659638702	0.8342107230921055	0.8342107230920207	-0.1250178740694393	-0.1581303423301984	0.1098387841834197	-0.03354562884599809	-0.7727445387028357	-0.2103453318404282	-0.5457783453073429	2.49295005773812	-0.1974669856267639	0.7437218255784342	-0.10312667206261	1.992900980950975	1.992900980950939	0.1338770288559211	-0.09099555616422147	0.4478095515545459	0.002278296737448051	-0.1761746319811976	0.0224610465898623	-0.01137014809675801	-0.2251641485136886	0.07536003077653602	0.04141041647740318	0.1727242455108003	-8.863875652892384	-19.36625568156029	6.102597640225776	-7.81743897805559	-526.3338370333299	-59.23467827030921	-23.84824253780885	0.9068359543760675	0.6595116884912878	-0.3830619343993034	-1.682668044859742	0.7125907144301707	-0.2073259260061368	1.058441382523152	-1.475884235639324	-1.475884235646985	-0.0431336680702438	0.2074575810183016	-0.5436717843891834	0.496538923784323	-5.437374776265256e-07	-2.942585954822175e-07	2.92208893502969e-06	1.855116163461531e-07	-6.13616973102518e-07	1.559948083237547e-07	-4.519958413309109e-07
0.52	-0.3596880510095005	-0.04620552419676204	0.7463416153089917	1.163959901588818	-0.440389682451393	-0.2035334939159045	-0.2566355080415801	0.8540635452516097	0.8540635452514415	-0.1236791008209103	-0.1590300517284748	0.1142891726822972	-0.03349729498846984	-0.7634044305204986	-0.2037132396173158	-0.5492680668583324	2.475245361343807	-0.1901766068046715	0.741092146150397	-0.09263962509031068	1.977401770938988	1.977401770938901	0.1338753750634915	-0.08894317514106971	0.4421926386200701	0.007374997889674183	-0.1816683996835354	0.0231045277962877	-0.0114409659889811	-0.2278522304544126	0.07475367520495374	0.04181011215152633	0.1768895911725279	-9.261867178276702	-19.4479902872415	6.090308334535451	-7.720687276752583	-530.0259597662988	-58.97405580855178	-22.92508604394442	0.9536997696275648	0.6662003839933834	-0.3152420260286275	-1.844378879352877	0.758206080168518	-0.3423235261304779	1.046595809887819	-1.619672960866684	-1.619672960866652	0.08633870087540818	0.1986872623468581	-0.5750993023284227	0.540544520191969	-5.293294993439328e-07	-2.013896455324207e-07	2.9564487730585e-06	2.094832857794535e-07	-5.937841983966237e-07	2.321492797489988e-07	-4.437453353520475e-07
0.53	-0.3672727379885118	-0.04820920913745774	0.7408343717007799	1.188615722473205	-0.4422546821049427	-0.1961380244204082	-0.2575109187967076	0.8737536894044136	0.8737536894043942	-0.1223405062583173	-0.1599088093332345	0.1186811982602127	-0.03339841161873435	-0.7534272869660212	-0.1970163877014038	-0.5520618487410759	2.455594099221194	-0.1828147525438492	0.7379008645444811	-0.08251335936955577	1.960374288395309	1.960374288395278	0.1338378640067904	-0.08680358120681354	0.4361409395205495	0.01238336732221002	-0.1870104664530303	0.02354158111078205	-0.01145239015033029	-0.2306303607162688	0.07420403407552696	0.04205581812091484	0.1808930443730285	-9.644920274960509	-19.46046798192172	6.061270474603052	-7.541847271766033	-533.6791933006713	-58.63418790513278	-22.00516147259258	1.035502392143762	0.672576133348504	-0.2437420363544654	-2.074290261338953	0.7260927680458815	-0.3230445994156273	0.9850169380095016	-1.782113702744051	-1.782113702735613	-0.04957391129487181	0.2229071165592989	-0.6309135574194727	0.4779137283822122	-5.126961609875345e-07	-1.125966717360241e-07	2.975798023835037e-06	2.328867952714433e-07	-5.737231137309467e-07	3.064269905098323e-07	-4.336250028949259e-07
